<svg width="24" height="24" viewBox="0 0 24 24" fill="none" xmlns="http://www.w3.org/2000/svg">
<path d="M17.0273 3.04492C17.293 3.04492 17.4805 3.10742 17.5898 3.23242C17.707 3.34961 17.7656 3.55273 17.7656 3.8418V8.25977C17.7656 8.5332 17.6992 8.72852 17.5664 8.8457C17.4336 8.96289 17.207 9.02148 16.8867 9.02148C16.5664 9.02148 16.3398 8.96289 16.207 8.8457C16.0742 8.72852 16.0078 8.5332 16.0078 8.25977V4.63867H12.8789V15.3613H15.6445C15.9102 15.3613 16.0977 15.4238 16.207 15.5488C16.3242 15.666 16.3828 15.8691 16.3828 16.1582C16.3828 16.4473 16.3242 16.6543 16.207 16.7793C16.0977 16.8965 15.9102 16.9551 15.6445 16.9551H8.35547C8.08984 16.9551 7.89844 16.8965 7.78125 16.7793C7.67188 16.6543 7.61719 16.4473 7.61719 16.1582C7.61719 15.8691 7.67188 15.666 7.78125 15.5488C7.89844 15.4238 8.08984 15.3613 8.35547 15.3613H11.1211V4.63867H7.99219V8.25977C7.99219 8.5332 7.92578 8.72852 7.79297 8.8457C7.66016 8.96289 7.43359 9.02148 7.11328 9.02148C6.79297 9.02148 6.56641 8.96289 6.43359 8.8457C6.30078 8.72852 6.23438 8.5332 6.23438 8.25977V3.8418C6.23438 3.55273 6.28906 3.34961 6.39844 3.23242C6.51562 3.10742 6.70703 3.04492 6.97266 3.04492H17.0273Z" fill="#2E2F38" style="fill:#2E2F38;fill:color(display-p3 0.1804 0.1843 0.2196);fill-opacity:1;"/>
<path d="M3.61538 19.7551C3.26257 19.7551 2.97656 20.0237 2.97656 20.3551C2.97656 20.6864 3.26257 20.9551 3.61538 20.9551C4.76947 20.9551 5.36056 20.2929 5.77305 19.8502C6.19902 19.3929 6.44637 19.1551 6.96919 19.1551C7.49201 19.1551 7.73936 19.3929 8.16533 19.8502C8.57782 20.2929 9.16891 20.9551 10.323 20.9551C11.4771 20.9551 12.0682 20.2932 12.4807 19.8504C12.9066 19.3932 13.154 19.1553 13.6768 19.1553C14.1996 19.1553 14.447 19.3932 14.873 19.8504C15.2854 20.2932 15.8765 20.9553 17.0306 20.9553C18.1847 20.9553 18.7758 20.2932 19.1883 19.8504C19.6142 19.3932 19.8616 19.1553 20.3844 19.1553C20.7372 19.1553 21.0232 18.8867 21.0232 18.5553C21.0232 18.224 20.7372 17.9553 20.3844 17.9553C19.2303 17.9553 18.6392 18.6175 18.2268 19.0602C17.8008 19.5175 17.5534 19.7553 17.0306 19.7553C16.5078 19.7553 16.2604 19.5175 15.8345 19.0602C15.422 18.6175 14.8309 17.9553 13.6768 17.9553C12.5227 17.9553 11.9316 18.6175 11.5191 19.0602C11.0932 19.5175 10.8458 19.7551 10.323 19.7551C9.80018 19.7551 9.55282 19.5172 9.12686 19.06C8.71437 18.6172 8.12327 17.9551 6.96919 17.9551C5.81511 17.9551 5.22401 18.6172 4.81153 19.06C4.38556 19.5172 4.1382 19.7551 3.61538 19.7551Z" fill="#DC6B6E" style="fill:#DC6B6E;fill:color(display-p3 0.8627 0.4196 0.4314);fill-opacity:1;"/>
</svg>
