<svg width="24" height="24" viewBox="0 0 24 24" fill="none" xmlns="http://www.w3.org/2000/svg">
<path d="M2 7C2 5.89543 2.89543 5 4 5H20C21.1046 5 22 5.89543 22 7H2Z" fill="#AFB0BC" style="fill:#AFB0BC;fill:color(display-p3 0.6863 0.6902 0.7373);fill-opacity:1;"/>
<rect x="2" y="7" width="20" height="2" fill="#9EA0AB" style="fill:#9EA0AB;fill:color(display-p3 0.6196 0.6275 0.6706);fill-opacity:1;"/>
<rect width="20" height="2" transform="matrix(1 0 0 -1 2 13)" fill="#6D6E78" style="fill:#6D6E78;fill:color(display-p3 0.4275 0.4314 0.4706);fill-opacity:1;"/>
<path d="M4 11H2V9H4V11ZM22 11H20V9H22V11Z" fill="#8C8E98" style="fill:#8C8E98;fill:color(display-p3 0.5490 0.5569 0.5961);fill-opacity:1;"/>
<path d="M2 13H22C22 14.1046 21.1046 15 20 15H4C2.89543 15 2 14.1046 2 13Z" fill="#494A54" style="fill:#494A54;fill:color(display-p3 0.2863 0.2902 0.3294);fill-opacity:1;"/>
<rect x="9" y="15" width="6" height="2" fill="#2E2F38" style="fill:#2E2F38;fill:color(display-p3 0.1804 0.1843 0.2196);fill-opacity:1;"/>
<path d="M9 17H22V19H11C9.89543 19 9 18.1046 9 17Z" fill="black" style="fill:black;fill-opacity:1;"/>
</svg>
