<svg width="24" height="24" viewBox="0 0 24 24" fill="none" xmlns="http://www.w3.org/2000/svg">
<path d="M5.5 4C5.5 3.72386 5.27614 3.5 5 3.5V3.5C4.72386 3.5 4.5 3.72386 4.5 4V4C4.5 4.27614 4.72386 4.5 5 4.5V4.5C5.27614 4.5 5.5 4.27614 5.5 4V4Z" fill="#DDA846" style="fill:#DDA846;fill:color(display-p3 0.8667 0.6588 0.2745);fill-opacity:1;"/>
<path d="M4.5 6C4.5 5.72386 4.72386 5.5 5 5.5V5.5C5.27614 5.5 5.5 5.72386 5.5 6V18C5.5 18.2761 5.27614 18.5 5 18.5V18.5C4.72386 18.5 4.5 18.2761 4.5 18V6Z" fill="#DDA846" style="fill:#DDA846;fill:color(display-p3 0.8667 0.6588 0.2745);fill-opacity:1;"/>
<path d="M8.5 6.5C8.5 5.94772 8.05228 5.5 7.5 5.5V5.5C6.94772 5.5 6.5 5.94772 6.5 6.5V17.5C6.5 18.0523 6.94772 18.5 7.5 18.5V18.5C8.05228 18.5 8.5 18.0523 8.5 17.5V6.5Z" fill="#DDA846" style="fill:#DDA846;fill:color(display-p3 0.8667 0.6588 0.2745);fill-opacity:1;"/>
<path d="M9.5 6.5C9.5 5.94772 9.94772 5.5 10.5 5.5V5.5C11.0523 5.5 11.5 5.94772 11.5 6.5V7.5C11.5 8.05228 11.0523 8.5 10.5 8.5V8.5C9.94772 8.5 9.5 8.05228 9.5 7.5V6.5Z" fill="#DDA846" style="fill:#DDA846;fill:color(display-p3 0.8667 0.6588 0.2745);fill-opacity:1;"/>
<path d="M9.5 11.5C9.5 10.9477 9.94772 10.5 10.5 10.5V10.5C11.0523 10.5 11.5 10.9477 11.5 11.5V12.5C11.5 13.0523 11.0523 13.5 10.5 13.5V13.5C9.94772 13.5 9.5 13.0523 9.5 12.5V11.5Z" fill="#DDA846" style="fill:#DDA846;fill:color(display-p3 0.8667 0.6588 0.2745);fill-opacity:1;"/>
<path d="M15.5 4C15.5 3.72386 15.7239 3.5 16 3.5V3.5C16.2761 3.5 16.5 3.72386 16.5 4V4C16.5 4.27614 16.2761 4.5 16 4.5V4.5C15.7239 4.5 15.5 4.27614 15.5 4V4Z" fill="#DDA846" style="fill:#DDA846;fill:color(display-p3 0.8667 0.6588 0.2745);fill-opacity:1;"/>
<path d="M8.5 4C8.5 3.72386 8.27614 3.5 8 3.5H7C6.72386 3.5 6.5 3.72386 6.5 4V4C6.5 4.27614 6.72386 4.5 7 4.5H8C8.27614 4.5 8.5 4.27614 8.5 4V4Z" fill="#DDA846" style="fill:#DDA846;fill:color(display-p3 0.8667 0.6588 0.2745);fill-opacity:1;"/>
<path d="M9.5 4C9.5 3.72386 9.72386 3.5 10 3.5H11C11.2761 3.5 11.5 3.72386 11.5 4V4C11.5 4.27614 11.2761 4.5 11 4.5H10C9.72386 4.5 9.5 4.27614 9.5 4V4Z" fill="#DDA846" style="fill:#DDA846;fill:color(display-p3 0.8667 0.6588 0.2745);fill-opacity:1;"/>
<path d="M14.5 4C14.5 3.72386 14.2761 3.5 14 3.5H13C12.7239 3.5 12.5 3.72386 12.5 4V4C12.5 4.27614 12.7239 4.5 13 4.5H14C14.2761 4.5 14.5 4.27614 14.5 4V4Z" fill="#DDA846" style="fill:#DDA846;fill:color(display-p3 0.8667 0.6588 0.2745);fill-opacity:1;"/>
<path d="M17 5.5C17.2761 5.5 17.5 5.72386 17.5 6V6C17.5 6.27614 17.2761 6.5 17 6.5H16C15.7239 6.5 15.5 6.27614 15.5 6V6C15.5 5.72386 15.7239 5.5 16 5.5H17Z" fill="#DDA846" style="fill:#DDA846;fill:color(display-p3 0.8667 0.6588 0.2745);fill-opacity:1;"/>
<path d="M19 10.5C19.2761 10.5 19.5 10.2761 19.5 10V8C19.5 7.72386 19.2761 7.5 19 7.5V7.5C18.7239 7.5 18.5 7.72386 18.5 8V10C18.5 10.2761 18.7239 10.5 19 10.5V10.5Z" fill="#DDA846" style="fill:#DDA846;fill:color(display-p3 0.8667 0.6588 0.2745);fill-opacity:1;"/>
<path d="M19 13.5C19.2761 13.5 19.5 13.7239 19.5 14V16C19.5 16.2761 19.2761 16.5 19 16.5V16.5C18.7239 16.5 18.5 16.2761 18.5 16V14C18.5 13.7239 18.7239 13.5 19 13.5V13.5Z" fill="#DDA846" style="fill:#DDA846;fill:color(display-p3 0.8667 0.6588 0.2745);fill-opacity:1;"/>
<path d="M5.5 20C5.5 20.2761 5.27614 20.5 5 20.5V20.5C4.72386 20.5 4.5 20.2761 4.5 20V20C4.5 19.7239 4.72386 19.5 5 19.5V19.5C5.27614 19.5 5.5 19.7239 5.5 20V20Z" fill="#DDA846" style="fill:#DDA846;fill:color(display-p3 0.8667 0.6588 0.2745);fill-opacity:1;"/>
<path d="M15.5 20C15.5 20.2761 15.7239 20.5 16 20.5V20.5C16.2761 20.5 16.5 20.2761 16.5 20V20C16.5 19.7239 16.2761 19.5 16 19.5V19.5C15.7239 19.5 15.5 19.7239 15.5 20V20Z" fill="#DDA846" style="fill:#DDA846;fill:color(display-p3 0.8667 0.6588 0.2745);fill-opacity:1;"/>
<path d="M8.5 20C8.5 20.2761 8.27614 20.5 8 20.5H7C6.72386 20.5 6.5 20.2761 6.5 20V20C6.5 19.7239 6.72386 19.5 7 19.5H8C8.27614 19.5 8.5 19.7239 8.5 20V20Z" fill="#DDA846" style="fill:#DDA846;fill:color(display-p3 0.8667 0.6588 0.2745);fill-opacity:1;"/>
<path d="M9.5 20C9.5 20.2761 9.72386 20.5 10 20.5H11C11.2761 20.5 11.5 20.2761 11.5 20V20C11.5 19.7239 11.2761 19.5 11 19.5H10C9.72386 19.5 9.5 19.7239 9.5 20V20Z" fill="#DDA846" style="fill:#DDA846;fill:color(display-p3 0.8667 0.6588 0.2745);fill-opacity:1;"/>
<path d="M14.5 20C14.5 20.2761 14.2761 20.5 14 20.5H13C12.7239 20.5 12.5 20.2761 12.5 20V20C12.5 19.7239 12.7239 19.5 13 19.5H14C14.2761 19.5 14.5 19.7239 14.5 20V20Z" fill="#DDA846" style="fill:#DDA846;fill:color(display-p3 0.8667 0.6588 0.2745);fill-opacity:1;"/>
<path d="M15.5 18C15.5 18.2761 15.7239 18.5 16 18.5H17C17.2761 18.5 17.5 18.2761 17.5 18V18C17.5 17.7239 17.2761 17.5 17 17.5H16C15.7239 17.5 15.5 17.7239 15.5 18V18Z" fill="#DDA846" style="fill:#DDA846;fill:color(display-p3 0.8667 0.6588 0.2745);fill-opacity:1;"/>
<path d="M14.5 6.5C14.5 5.94772 14.0523 5.5 13.5 5.5V5.5C12.9477 5.5 12.5 5.94772 12.5 6.5V7.5C12.5 8.05228 12.9477 8.5 13.5 8.5V8.5C14.0523 8.5 14.5 8.05228 14.5 7.5V6.5Z" fill="#DDA846" style="fill:#DDA846;fill:color(display-p3 0.8667 0.6588 0.2745);fill-opacity:1;"/>
<path d="M15.5 8.5C15.5 7.94772 15.9477 7.5 16.5 7.5V7.5C17.0523 7.5 17.5 7.94772 17.5 8.5V9.5C17.5 10.0523 17.0523 10.5 16.5 10.5V10.5C15.9477 10.5 15.5 10.0523 15.5 9.5V8.5Z" fill="#DDA846" style="fill:#DDA846;fill:color(display-p3 0.8667 0.6588 0.2745);fill-opacity:1;"/>
<path d="M17.5 14.5C17.5 13.9477 17.0523 13.5 16.5 13.5V13.5C15.9477 13.5 15.5 13.9477 15.5 14.5V15.5C15.5 16.0523 15.9477 16.5 16.5 16.5V16.5C17.0523 16.5 17.5 16.0523 17.5 15.5V14.5Z" fill="#DDA846" style="fill:#DDA846;fill:color(display-p3 0.8667 0.6588 0.2745);fill-opacity:1;"/>
<path d="M12.5 16.5C12.5 15.9477 12.9477 15.5 13.5 15.5V15.5C14.0523 15.5 14.5 15.9477 14.5 16.5V17.5C14.5 18.0523 14.0523 18.5 13.5 18.5V18.5C12.9477 18.5 12.5 18.0523 12.5 17.5V16.5Z" fill="#DDA846" style="fill:#DDA846;fill:color(display-p3 0.8667 0.6588 0.2745);fill-opacity:1;"/>
<path d="M11.5 16.5C11.5 15.9477 11.0523 15.5 10.5 15.5V15.5C9.94772 15.5 9.5 15.9477 9.5 16.5V17.5C9.5 18.0523 9.94772 18.5 10.5 18.5V18.5C11.0523 18.5 11.5 18.0523 11.5 17.5V16.5Z" fill="#DDA846" style="fill:#DDA846;fill:color(display-p3 0.8667 0.6588 0.2745);fill-opacity:1;"/>
<rect x="12.5" y="10.5" width="3" height="3" rx="1" fill="#DDA846" style="fill:#DDA846;fill:color(display-p3 0.8667 0.6588 0.2745);fill-opacity:1;"/>
</svg>
